<svg id="svg" version="1.1" xmlns="http://www.w3.org/2000/svg" xmlns:xlink="http://www.w3.org/1999/xlink" width="400" height="400" viewBox="0, 0, 400,400"><g id="svgg"><path id="path0" d="M0.000 200.000 L 0.000 400.000 200.000 400.000 L 400.000 400.000 400.000 200.000 L 400.000 0.000 200.000 0.000 L 0.000 0.000 0.000 200.000 M168.682 150.698 L 168.682 180.775 199.845 180.775 L 231.008 180.775 231.008 150.698 L 231.008 120.620 250.698 120.620 L 270.388 120.620 270.388 198.140 L 270.388 275.659 250.698 275.659 L 231.008 275.659 231.008 244.961 L 231.008 214.264 199.845 214.264 L 168.682 214.264 168.682 244.961 L 168.682 275.659 148.992 275.659 L 129.302 275.659 129.302 198.140 L 129.302 120.620 148.992 120.620 L 168.682 120.620 168.682 150.698 " stroke="none" fill="#84d4e4" fill-rule="evenodd"></path><path id="path1" d="M129.302 198.140 L 129.302 275.659 148.991 275.659 L 168.679 275.659 168.758 244.884 L 168.837 214.109 199.922 214.030 L 231.008 213.951 231.008 244.805 L 231.008 275.659 250.698 275.659 L 270.388 275.659 270.388 198.140 L 270.388 120.620 250.698 120.620 L 231.008 120.620 231.008 150.854 L 231.008 181.088 199.922 181.009 L 168.837 180.930 168.758 150.775 L 168.679 120.620 148.991 120.620 L 129.302 120.620 129.302 198.140 " stroke="none" fill="#2c7494" fill-rule="evenodd"></path><path id="path2" d="M184.419 181.008 C 192.988 181.054,207.012 181.054,215.581 181.008 C 224.151 180.962,217.140 180.924,200.000 180.924 C 182.860 180.924,175.849 180.962,184.419 181.008 M184.419 214.186 C 192.988 214.232,207.012 214.232,215.581 214.186 C 224.151 214.140,217.140 214.103,200.000 214.103 C 182.860 214.103,175.849 214.140,184.419 214.186 " stroke="none" fill="#88bcbc" fill-rule="evenodd"></path><path id="path3" d="M184.419 181.008 C 192.988 181.054,207.012 181.054,215.581 181.008 C 224.151 180.962,217.140 180.924,200.000 180.924 C 182.860 180.924,175.849 180.962,184.419 181.008 M184.419 214.186 C 192.988 214.232,207.012 214.232,215.581 214.186 C 224.151 214.140,217.140 214.103,200.000 214.103 C 182.860 214.103,175.849 214.140,184.419 214.186 " stroke="none" fill="#88bcbc" fill-rule="evenodd"></path><path id="path4" d="M184.419 181.008 C 192.988 181.054,207.012 181.054,215.581 181.008 C 224.151 180.962,217.140 180.924,200.000 180.924 C 182.860 180.924,175.849 180.962,184.419 181.008 M184.419 214.186 C 192.988 214.232,207.012 214.232,215.581 214.186 C 224.151 214.140,217.140 214.103,200.000 214.103 C 182.860 214.103,175.849 214.140,184.419 214.186 " stroke="none" fill="#88bcbc" fill-rule="evenodd"></path></g></svg>